<svg xmlns="http://www.w3.org/2000/svg" version="1.0" viewBox="0 0 375 375">
  <defs>
    <clipPath id="a">
      <path d="M25 0h325v375H25Zm0 0"/>
    </clipPath>
  </defs>
  <path fill="#ffffff" d="m296 308-11-11a129 129 0 0 0 0-169l11-10a10 10 0 0 0-14-14l-10 11a129 129 0 0 0-169 0l-10-11a10 10 0 1 0-14 14l10 10a129 129 0 0 0 0 169l-10 11a10 10 0 0 0 14 13l10-10a129 129 0 0 0 169 0l10 10a10 10 0 0 0 14 0c4-4 4-10 0-13Zm2-95c0 27-10 51-26 70l-7-6a101 101 0 0 0 0-129l7-6c16 19 26 44 26 71Zm-57 0c0 11-4 21-10 30l-6-7a44 44 0 0 0 0-47l6-7c6 9 10 19 10 31Zm-107 0c0-12 4-22 10-31l6 7a44 44 0 0 0 0 47l-6 7c-6-9-10-19-10-30Zm78 0c0 3 0 6-2 9l-9-9 9-10c2 3 2 6 2 10Zm-49 0c0-4 0-7 2-10l9 10-9 9c-2-3-2-6-2-9Zm15-23a25 25 0 0 1 19 0l-10 9Zm9 36 10 10a25 25 0 0 1-19 0Zm24-51a44 44 0 0 0-47 0l-7-6a53 53 0 0 1 61 0Zm-47 75a44 44 0 0 0 47 0l7 6a53 53 0 0 1-61 0Zm67-95a72 72 0 0 0-88 0l-6-6a81 81 0 0 1 101 0Zm-101 14a72 72 0 0 0 0 88l-7 6a81 81 0 0 1 0-101Zm13 101a72 72 0 0 0 88 0l7 7a81 81 0 0 1-101 0Zm102-13a72 72 0 0 0 0-88l7-7a81 81 0 0 1 0 101Zm-58-154c27 0 52 9 71 25l-6 7a100 100 0 0 0-129 0l-6-7c19-16 44-25 70-25ZM77 213c0-27 10-52 26-71l7 6a100 100 0 0 0 0 129l-7 6c-16-19-26-43-26-70Zm110 110c-26 0-51-10-70-26l6-7a100 100 0 0 0 129 0l6 7c-19 16-44 26-71 26"/>
  <g clip-path="url(#a)">
    <path fill="#ffffff" d="M321 52V34c0-19-16-34-34-34H88C70 0 54 15 54 34v18c-16 5-29 20-29 39v244c0 22 18 40 40 40h244c23 0 41-18 41-40V91c0-19-13-34-29-39ZM74 34c0-8 6-15 14-15h199c8 0 14 7 14 15v15H74Zm257 301c0 11-10 21-22 21H65c-11 0-21-10-21-21V91c0-12 10-21 21-21h244c12 0 22 9 22 21v244"/>
  </g>
  <path fill="#ffffff" d="M67 103a11 11 0 1 0 0-22 11 11 0 0 0 0 22m241-22a11 11 0 1 0 0 22 11 11 0 0 0 0-22M67 322a11 11 0 1 0 0 22 11 11 0 0 0 0-22m241 0a11 11 0 1 0 0 22 11 11 0 0 0 0-22M280 26a8 8 0 1 0 0 16 8 8 0 0 0 0-16m-30 0a8 8 0 1 0 0 16 8 8 0 0 0 0-16m-30 0a8 8 0 1 0 0 16 8 8 0 0 0 0-16m-30 0a8 8 0 1 0 0 16 8 8 0 0 0 0-16"/>
</svg>