<svg xmlns="http://www.w3.org/2000/svg" viewBox="0 0 700 700" fill="white">
  <path d="m669 259-30-79c-6-18-10-38-24-51l-20-20 17-18c3-2 3-6 0-9l-28-28c-3-3-7-3-10 0l-17 17-65-66c-4-4-11-4-14 0l-75 74c-4 4-3 10 0 14l65 64-63 61-57 55-44-42-80-77 87-60c8-5 8-13 3-19L260 4c-3-4-11-5-15-2-41 28-93 55-126 87-33 33-59 85-87 126-3 4-2 12 2 15l71 54c6 5 14 5 19-3l60-87 77 80 41 43-68 66-119 114-5 5c-5 5-5 13-1 18l19 18 18 19c4 4 13 4 18-1l5-5 114-119 65-67 69 72 109 113 5 5c4 5 13 4 17 0l18-18 19-19c4-4 5-13 0-17l-6-5-112-109-73-70 54-56 61-63 18 19c13 12 30 16 47 22l83 32c5 1 8 0 10-3 3-2 4-5 2-9z"/>
</svg>