<svg xmlns="http://www.w3.org/2000/svg" fill="none" viewBox="0 0 90 90">
  <path fill="#fff" d="M45 0a45 45 0 1 0 0 90 45 45 0 0 0 0-90ZM22 47v-1l12-18h1c2 4 3 10 3 13a20 20 0 0 1-3 6H22Zm52 6-5 4c-3 4-6 11-12 11H34c-8 0-15-7-15-15v-1h13l1 1v2l4 3h7v-5h-7v-1a49 49 0 0 0 4-7l1-1v-2a13 13 0 0 0 0-4v-4l-1-2a44 44 0 0 0-1-5l-1-1a13 13 0 0 1-1-2l-1-2 5 1h2v1-3c0-2 1-3 2-3l2 1 1 2v4h1v1h1l1 2h1a39 39 0 0 1 3 3l1 1 1 1v1a19 19 0 0 1 2 3 11 11 0 0 1 0 2v1a8 8 0 0 1 0 3v1l-1 2-1 1-1 1v1a21 21 0 0 1-2 2h-1v1l-1 1h-4v5h5l3-1 3-3v-1l14-3c0-1 0 0 0 0v3Z"/>
</svg>