<svg xmlns="http://www.w3.org/2000/svg" xmlns:xlink="http://www.w3.org/1999/xlink" width="500" zoomAndPan="magnify" viewBox="0 0 375 374.999991" height="500" preserveAspectRatio="xMidYMid meet" version="1.0"><defs><clipPath id="id1"><path d="M 0 0 L 374.652344 0 L 374.652344 374.652344 L 0 374.652344 Z M 0 0 " clip-rule="nonzero"/></clipPath><clipPath id="id2"><path d="M 81 59 L 286 59 L 286 320 L 81 320 Z M 81 59 " clip-rule="nonzero"/></clipPath><clipPath id="id3"><path d="M 64.441406 78.605469 L 259.65625 39.609375 L 310.742188 295.34375 L 115.523438 334.339844 Z M 64.441406 78.605469 " clip-rule="nonzero"/></clipPath><clipPath id="id4"><path d="M 64.441406 78.605469 L 259.65625 39.609375 L 310.742188 295.34375 L 115.523438 334.339844 Z M 64.441406 78.605469 " clip-rule="nonzero"/></clipPath></defs><g clip-path="url(#id1)"><path fill="#ffffff" d="M 187.328125 374.652344 C 137.3125 374.652344 90.21875 355.1875 54.878906 319.773438 C 19.464844 284.433594 0 237.339844 0 187.328125 C 0 137.3125 19.464844 90.21875 54.878906 54.878906 C 90.21875 19.464844 137.3125 0 187.328125 0 C 237.339844 0 284.433594 19.464844 319.773438 54.878906 C 355.1875 90.292969 374.652344 137.3125 374.652344 187.328125 C 374.652344 237.339844 355.1875 284.433594 319.773438 319.773438 C 284.433594 355.1875 237.339844 374.652344 187.328125 374.652344 Z M 187.328125 11.230469 C 140.308594 11.230469 96.058594 29.574219 62.816406 62.816406 C 29.574219 96.058594 11.230469 140.308594 11.230469 187.328125 C 11.230469 234.34375 29.574219 278.59375 62.816406 311.835938 C 96.058594 345.078125 140.308594 363.421875 187.328125 363.421875 C 234.34375 363.421875 278.59375 345.078125 311.835938 311.835938 C 345.078125 278.59375 363.421875 234.34375 363.421875 187.328125 C 363.421875 140.308594 345.078125 96.058594 311.835938 62.816406 C 278.59375 29.574219 234.34375 11.230469 187.328125 11.230469 Z M 187.328125 11.230469 " fill-opacity="1" fill-rule="nonzero"/></g><g clip-path="url(#id2)"><g clip-path="url(#id3)"><g clip-path="url(#id4)"><path fill="#ffffff" d="M 242.855469 166.363281 C 254.773438 156.976562 260.703125 143.453125 254.816406 124.078125 C 246.808594 97.589844 221.609375 93.203125 191.566406 96.523438 L 184.078125 59.058594 L 161.199219 63.628906 L 168.480469 100.109375 C 162.460938 101.3125 156.347656 102.65625 150.265625 103.996094 L 142.925781 67.28125 L 120.070312 71.847656 L 127.546875 109.304688 C 122.613281 110.394531 117.765625 111.460938 113.015625 112.410156 L 112.996094 112.300781 L 81.4375 118.589844 L 86.304688 142.941406 C 86.304688 142.941406 103.136719 139.25 102.917969 139.613281 C 112.183594 137.769531 116.28125 142.53125 118.074219 146.984375 L 126.609375 189.664062 L 138.582031 249.617188 C 138.757812 252.605469 137.96875 257.589844 131.492188 258.894531 C 131.839844 259.09375 114.847656 262.214844 114.847656 262.214844 L 115.75 290.351562 L 145.519531 284.40625 C 151.066406 283.304688 156.53125 282.300781 161.886719 281.277344 L 169.476562 319.164062 L 192.328125 314.605469 L 184.832031 277.113281 C 191.144531 275.984375 197.226562 274.828125 203.152344 273.636719 L 210.601562 310.957031 L 233.476562 306.386719 L 225.933594 268.554688 C 263.949219 258.671875 288.941406 243.636719 285.097656 206.960938 C 282.003906 177.429688 265.734375 167.226562 242.855469 166.363281 Z M 156.167969 130.695312 C 169.070312 128.121094 208.832031 115.917969 214.203125 142.789062 C 219.34375 168.554688 178.179688 173.648438 165.261719 176.230469 Z M 179.871094 249.421875 L 169.855469 199.214844 C 185.355469 196.113281 233.089844 181.957031 239 211.496094 C 244.664062 239.820312 195.382812 246.3125 179.871094 249.421875 Z M 179.871094 249.421875 " fill-opacity="1" fill-rule="nonzero"/></g></g></g></svg>
