<svg xmlns="http://www.w3.org/2000/svg" xml:space="preserve" viewBox="0 0 168 194" fill="white">
  <path d="M66 44h-1 9c7 2 14 6 21 14l2 2h2c11-2 23 0 32 4l7 4 1 3c1 5 0 8-1 11v3l2 2c3 0 5-4 6-9l1-2 1 1c5 5 9 13 10 19v1l-1-1-5-5c-3-2-7-3-16-4l-19-2c-8-3-12-7-22-20L85 54c-5-6-11-9-19-10z" class="st0"/>
  <path d="M141 57a22 22 0 0 1 2-11v2l-1 9c1 4 1 5 6 10l6 6 2 2-2-1-8-6h-1l-1 4c0 4 0 7-2 10v-7c0-9-1-11-7-14a75 75 0 0 0-8-4l8 2 5 1 1-3zM70 72c-4-6-7-15-6-22v-2h1l6 3c4 2 6 5 8 14l1 6 4 7c2 2 1 2-2 2s-9-4-12-8zm65 43c-19-8-26-15-26-26v-4l1 2c4 3 9 4 21 6l16 3c12 4 19 13 21 24v12l-4 7v-1c0-4-2-8-6-11-4-4-9-6-23-12zm-14 4-1-5v-1l1 1 3 6 1 5-1 6-4 6c-4 4-8 6-15 7l-8 1-17 2-1 1 5-4 15-3 9-2c10-3 15-11 13-20z" class="st0"/>
  <path d="M131 135c-3-6-4-12-2-17v-1l2 1 10 6c8 4 12 8 16 11l5 13v11a29 29 0 0 1-17 21l1-3c2-5 3-9 1-15l-8-14-8-13zm-75 30c7-6 17-10 25-12l13 1c5 1 10 4 12 8 3 3 4 6 5 13l1 6c1 4 2 7 4 8 4 3 9 3 14 1l2-1-4 3-8 2c-4 0-8-3-12-8l-3-6c-4-8-5-11-9-13-4-3-9-3-12-2-5 3-6 9-3 12l6 3c4 1 7-2 7-6 0-2-1-4-3-5-4-1-7 0-7 3 0 2 1 3 2 3 1 1 1 1 0 0-3 0-4-4-1-6 3-3 8-2 10 2l1 7c-2 5-7 7-12 6l-8-6c-7-8-10-9-20-10l-2-1 2-2z" class="st0"/>
  <path d="m3 4 61 75c2 2 1 4-1 5l-6 2-5-2-13-21-13-19 12 22 10 19-2 4c-2 3-4 6-5 13-1 8-3 14-11 23l-6 9c-2 3-2 5-2 8l1 10 5 9 4 8h3c9-2 16-6 20-10 2-2 3-4 3-7l-1-5c-1-2-3-4-7-6-5-4-7-7-8-11s0-6 3-12c3-7 4-9 4-16l2-7c2-2 3-2 6-2 5-1 8-2 11-5 2-2 3-4 3-7v-3l-1-1L0 0l3 4zm31 143c1-2 1-5-1-6s-4-1-4 1v1l1 2v3c1 1 3 0 4-1zm41-53c-3 1-5 3-6 6l1 5c1 2 2 2 5 2 5 0 10-2 10-5 1-3-1-6-4-7-2-1-5-2-6-1zm6 5c1-1 1-3-1-3-3-2-7-1-7 2l4 2c2 1 3 0 4-1z" class="st1"/>
</svg>